control3min_grf.mot
version=1
nRows=12
nColumns 19
inDegrees=yes
endheader
time	1_ground_force_vx	1_ground_force_vy	1_ground_force_vz	1_ground_force_px	1_ground_force_py	1_ground_force_pz	1_ground_torque_x	1_ground_torque_y	1_ground_torque_z	2_ground_force_vx	2_ground_force_vy	2_ground_force_vz	2_ground_force_px	2_ground_force_py	2_ground_force_pz	2_ground_torque_x	2_ground_torque_y	2_ground_torque_z
            0.005000	           55.494718	          324.401321	          -20.345586	           -0.245656	            0.006214	           -0.403759	           -0.159138	           -0.930264	            0.058344	           39.170029	          340.340953	           32.310402	           -0.242566	            0.005572	           -0.687568	            0.102140	            0.887479	            0.084253
            0.005500	           55.582028	          330.896408	          -21.601953	           -0.245429	            0.006211	           -0.403008	           -0.126609	           -0.753742	            0.049207	           39.945964	          346.230382	           34.067429	           -0.242543	            0.005573	           -0.687908	            0.094056	            0.815232	            0.080215
            0.006000	           54.891189	          334.686150	          -22.592844	           -0.245591	            0.006214	           -0.403649	           -0.107642	           -0.656324	            0.044305	           40.111178	          352.488739	           35.028251	           -0.242408	            0.005575	           -0.688432	            0.089395	            0.785587	            0.078067
            0.006500	           54.153395	          340.820546	          -23.848708	           -0.246119	            0.006211	           -0.402985	           -0.137415	           -0.864834	            0.060516	           39.907677	          357.087579	           36.217960	           -0.242598	            0.005573	           -0.687942	            0.087565	            0.783521	            0.079469
            0.007000	           53.873270	          346.776171	          -25.427475	           -0.245935	            0.006210	           -0.402841	           -0.166788	           -1.073593	            0.078722	           39.697386	          363.529119	           37.085742	           -0.242801	            0.005574	           -0.688542	            0.094638	            0.866650	            0.088412
            0.007500	           53.593626	          352.550715	          -26.823591	           -0.245793	            0.006212	           -0.403284	           -0.176331	           -1.159942	            0.088253	           39.210110	          368.863674	           38.231271	           -0.242569	            0.005574	           -0.688185	            0.099470	            0.935750	            0.096987
            0.008000	           53.221845	          358.326027	          -28.402903	           -0.245731	            0.006213	           -0.403449	           -0.158532	           -1.067344	            0.084604	           38.954440	          374.935592	           39.426256	           -0.242622	            0.005574	           -0.688177	            0.103189	            0.993196	            0.104439
            0.008500	           52.392087	          366.623396	          -29.603408	           -0.245877	            0.006208	           -0.402263	           -0.132496	           -0.927165	            0.074865	           39.303210	          382.298359	           40.719438	           -0.242275	            0.005577	           -0.688775	            0.100998	            0.982399	            0.104638
            0.009000	           51.425534	          371.495465	          -30.772406	           -0.246281	            0.006211	           -0.403096	           -0.094643	           -0.683696	            0.056633	           40.073774	          389.661477	           42.340937	           -0.242817	            0.005577	           -0.689297	            0.082602	            0.803185	            0.087275
            0.009500	           49.816201	          379.252508	          -32.110864	           -0.246116	            0.006210	           -0.402808	           -0.098240	           -0.747906	            0.063324	           40.282099	          397.022900	           43.868819	           -0.242474	            0.005579	           -0.689431	            0.078493	            0.773632	            0.085482
            0.010000	           48.527264	          386.650003	          -33.680940	           -0.246061	            0.006211	           -0.402973	           -0.115530	           -0.920510	            0.080185	           40.262674	          402.543120	           45.061733	           -0.242416	            0.005577	           -0.688906	            0.072349	            0.723344	            0.080973
            0.010500	           47.283466	          393.508117	          -35.574444	           -0.246503	            0.006211	           -0.403032	           -0.131824	           -1.097083	            0.099180	           40.093931	          410.457848	           45.981681	           -0.242413	            0.005578	           -0.689269	            0.074164	            0.759249	            0.085055
